# xmcd CD database file
# Copyright (C) 1993-1998 Ti Kan
# 
# Track frame offsets:
#     182
#     17387
#     40232
#     52955
#     71855
#     89342
#     103355
#     130502
#     143750
#     152707
#     180172
#     193577
#     213830
#     233075
# 
# Disc length: 3694 seconds
# 
# Revision: 1
# Processed by: cddbd v1.4b41PL1 Copyright (c) Steve Scherf et al.
# Submitted via: DiscPlay 4.0.4
# 
DISCID=b30e6c0e
DTITLE=Damon Davies - Serious Man
DYEAR=1900
DGENRE=
TTITLE0=Just A Feeling
TTITLE1=Too Nice A Day
TTITLE2=Churchill Line
TTITLE3=Hesitation
TTITLE4=The Big Boat
TTITLE5=What Is It?
TTITLE6=Zydeco
TTITLE7=Your No Stranger
TTITLE8=Curley Hair
TTITLE9=Liza Jane
TTITLE10=Loose Change
TTITLE11=Rest Easy
TTITLE12=Serious Man
TTITLE13=Borderline
EXTD=
EXTT0=
EXTT1=
EXTT2=
EXTT3=
EXTT4=
EXTT5=
EXTT6=
EXTT7=
EXTT8=
EXTT9=
EXTT10=
EXTT11=
EXTT12=
EXTT13=
PLAYORDER=
